Coordinates
version=1
nRows=6
nColumns=36
inDegrees=yes

Units are S.I. units (second, meters, Newtons, ...)
If the header above contains a line with 'inDegrees', this indicates whether rotational values are in degrees (yes) or radians (no).

endheader
time	pelvis_tilt	pelvis_list	pelvis_rotation	pelvis_tx	pelvis_ty	pelvis_tz	hip_flexion_r	hip_adduction_r	hip_rotation_r	knee_angle_r	knee_angle_r_beta	ankle_angle_r	subtalar_angle_r	mtp_angle_r	hip_flexion_l	hip_adduction_l	hip_rotation_l	knee_angle_l	knee_angle_l_beta	ankle_angle_l	subtalar_angle_l	mtp_angle_l	lumbar_extension	lumbar_bending	lumbar_rotation	arm_flex_r	arm_add_r	arm_rot_r	elbow_flex_r	pro_sup_r	arm_flex_l	arm_add_l	arm_rot_l	elbow_flex_l	pro_sup_l
      3.50000000	    -15.17278475	      0.31562210	      0.87634552	      0.79872084	      0.92840112	      0.05651678	     37.54066801	    -13.09926156	     -9.53082219	     28.75365761	      0.50184600	     13.74865979	      8.04240701	     -7.49999987	     36.35056601	    -15.96975298	    -18.71620177	     33.48206096	      0.58437220	     13.00345442	      9.57421200	     -7.49999987	    -21.22174111	     -2.12292779	      6.95024395	     57.96794954	     18.25473878	     68.77747423	    126.91416206	     94.58826054	     76.26923171	     23.32463427	     72.91508404	    125.44972016	     81.39314737
      3.51666670	    -14.48077969	      0.27332886	      0.89056700	      0.80743454	      0.93523543	      0.05643504	     34.96240967	    -12.89056285	     -9.60433855	     26.50962172	      0.46268018	     13.23823298	      8.14959725	     -7.49999987	     33.41287053	    -15.16848567	    -18.88971700	     30.48819159	      0.53211933	     12.58167488	      9.74869285	     -7.49999987	    -19.58754126	     -1.77664922	      6.91840804	     55.97618917	     18.33851142	     68.38707447	    126.56347309	     94.33170239	     74.28899938	     23.22346753	     72.85030586	    124.99911392	     81.20471730
      3.53333330	    -13.92831862	      0.12709907	      1.18793254	      0.80566427	      0.94100618	      0.05613615	     32.66958348	    -12.55474149	     -9.38964803	     24.04596849	      0.41968132	     12.59921401	      7.75089354	     -7.49999987	     31.33462148	    -14.45351788	    -18.71662053	     28.00808520	      0.48883330	     11.91476328	      9.71020640	     -7.49999987	    -17.98162904	     -1.28769843	      6.94122985	     55.23623676	     17.81370263	     67.15390688	    126.21527324	     94.28067398	     73.28337109	     23.41487710	     72.33706129	    124.88205562	     80.67931512
      3.55000000	    -13.33923710	     -0.02589251	      1.15289005	      0.81452110	      0.94746656	      0.05645809	     30.12841218	    -11.86226809	     -8.77141034	     21.22190303	      0.37039208	     11.71320416	      6.81172167	     -7.49999987	     29.29958534	    -13.95416062	    -18.19809454	     25.88661397	      0.45180665	     11.34215913	      9.19435110	     -7.49999987	    -16.72607672	     -1.04851826	      6.77725604	     53.72551204	     17.56683330	     66.47570563	    126.45362409	     93.94396095	     72.66244540	     22.80899811	     71.68584946	    124.67885584	     71.08423995
      3.56666670	    -13.02544864	     -0.22430865	      1.49536579	      0.81361808	      0.95284557	      0.05584899	     28.06954791	    -11.27831096	     -8.24724103	     18.56214445	      0.32397054	     10.80366566	      5.78788262	     -7.49999987	     28.11576969	    -13.42248807	    -17.35358193	     24.15162659	      0.42152540	     10.46911563	      8.39080588	     -7.49999987	    -15.51050150	     -0.56293972	      6.46362820	     52.62565671	     17.44443358	     66.45440340	    126.44564430	     93.86065572	     71.78180729	     22.51021792	     71.49445033	    124.43439924	     70.86693949
      3.58333330	    -12.65280758	     -0.29778508	      1.84394706	      0.81330892	      0.95556657	      0.05525099	     26.26624233	    -10.86282660	     -7.61815632	     16.16340254	      0.28210459	      9.84350549	      4.63385471	     -7.49999987	     26.95520218	    -12.77746035	    -16.07988437	     22.46881737	      0.39215484	      9.80646175	      7.42906868	     -7.49999987	    -14.47721920	     -0.26058626	      6.31201166	     52.05315871	     17.45379803	     65.89424329	    126.40861439	     93.20120108	     71.25565290	     22.93293522	     71.49552279	    124.33342159	     70.08699491
